<?xml version="1.0" encoding="UTF-8" standalone="no"?>
<!-- Created with Inkscape (http://www.inkscape.org/) -->

<svg
   xmlns:dc="http://purl.org/dc/elements/1.1/"
   xmlns:cc="http://creativecommons.org/ns#"
   xmlns:rdf="http://www.w3.org/1999/02/22-rdf-syntax-ns#"
   xmlns:svg="http://www.w3.org/2000/svg"
   xmlns="http://www.w3.org/2000/svg"
   xmlns:sodipodi="http://sodipodi.sourceforge.net/DTD/sodipodi-0.dtd"
   xmlns:inkscape="http://www.inkscape.org/namespaces/inkscape"
   width="102.01958mm"
   height="23.778513mm"
   viewBox="0 0 102.01958 23.778513"
   version="1.1"
   id="svg4646"
   inkscape:version="0.92.1 unknown"
   sodipodi:docname="logo.svg">
  <defs
     id="defs4640" />
  <sodipodi:namedview
     id="base"
     pagecolor="#ffffff"
     bordercolor="#666666"
     borderopacity="1.0"
     inkscape:pageopacity="0.0"
     inkscape:pageshadow="2"
     inkscape:zoom="1.4"
     inkscape:cx="227.28151"
     inkscape:cy="77.718015"
     inkscape:document-units="mm"
     inkscape:current-layer="layer1"
     showgrid="false"
     inkscape:window-width="1855"
     inkscape:window-height="1056"
     inkscape:window-x="65"
     inkscape:window-y="24"
     inkscape:window-maximized="1"
     showguides="true"
     inkscape:guide-bbox="true"
     inkscape:snap-global="false"
     fit-margin-top="0"
     fit-margin-left="0"
     fit-margin-right="0"
     fit-margin-bottom="0" />
  <metadata
     id="metadata4643">
    <rdf:RDF>
      <cc:Work
         rdf:about="">
        <dc:format>image/svg+xml</dc:format>
        <dc:type
           rdf:resource="http://purl.org/dc/dcmitype/StillImage" />
        <dc:title></dc:title>
      </cc:Work>
    </rdf:RDF>
  </metadata>
  <g
     inkscape:label="Layer 1"
     inkscape:groupmode="layer"
     id="layer1"
     transform="translate(-6.537083,-8.7156547)">
    <path
       inkscape:connector-curvature="0"
       style="font-style:normal;font-weight:normal;font-size:10.58333302px;line-height:1.25;font-family:sans-serif;letter-spacing:0px;word-spacing:0px;fill:#ba7500;fill-opacity:1;stroke:none;stroke-width:0.26458332"
       d="m 102.4917,14.549391 c -0.8351,0 -1.61231,0.119889 -2.33164,0.359668 -0.711062,0.23151 -1.331182,0.566373 -1.860352,1.00459 -0.52089,0.429948 -0.93017,0.950846 -1.22783,1.562695 -0.29765,0.611849 -0.44648,1.293978 -0.44648,2.046387 0,0.644921 0.10335,1.203027 0.31006,1.674316 0.21497,0.463021 0.50023,0.868164 0.85576,1.21543 0.3638,0.347265 0.78135,0.653187 1.25263,0.917773 0.47956,0.264584 0.979792,0.520899 1.500682,0.768946 0.46302,0.223242 0.95498,0.454752 1.47588,0.694531 0.5209,0.239779 1.00045,0.51263 1.43867,0.818555 0.44648,0.297656 0.81442,0.640786 1.10381,1.029393 0.29766,0.380338 0.44648,0.826823 0.44648,1.339453 0,0.471289 -0.0951,0.892969 -0.28525,1.265039 -0.1819,0.37207 -0.43822,0.686263 -0.76895,0.942578 -0.33072,0.256315 -0.7276,0.454753 -1.19062,0.595313 -0.45475,0.132291 -0.95085,0.198437 -1.48828,0.198437 -0.39688,0 -0.75241,-0.02894 -1.06661,-0.08682 -0.305912,-0.05788 -0.566362,-0.119891 -0.781332,-0.186036 -0.21498,-0.07442 -0.38448,-0.14056 -0.5085,-0.198438 l -0.21084,-0.11162 c -0.0909,-0.04134 -0.1819,-0.11989 -0.27285,-0.235646 -0.0827,-0.115755 -0.13229,-0.223242 -0.14883,-0.322461 l -0.33486,-2.877338 h -1.5999 v 4.502052 c 0.3638,0.173633 0.77308,0.330729 1.22783,0.471289 0.39687,0.115755 0.86816,0.223242 1.41387,0.322461 0.55397,0.09922 1.178212,0.148828 1.872742,0.148828 1.19063,0 2.21175,-0.148828 3.06338,-0.446484 0.85163,-0.297657 1.55029,-0.690399 2.096,-1.178224 0.5457,-0.487826 0.94258,-1.041797 1.19062,-1.661914 0.25632,-0.620118 0.38447,-1.252636 0.38447,-1.897558 0,-0.636653 -0.10748,-1.19476 -0.32246,-1.674317 -0.21497,-0.487826 -0.52916,-0.926042 -0.94258,-1.314649 -0.40514,-0.388607 -0.9095,-0.740005 -1.51308,-1.054198 -0.59531,-0.314196 -1.27744,-0.615983 -2.04639,-0.905371 -0.57051,-0.214974 -1.07487,-0.438216 -1.51308,-0.669727 -0.43822,-0.23151 -0.81029,-0.479557 -1.11622,-0.74414 -0.297642,-0.272852 -0.525022,-0.566374 -0.682122,-0.880567 -0.14882,-0.322461 -0.22324,-0.677994 -0.22324,-1.066601 0,-0.429948 0.0744,-0.826823 0.22324,-1.190625 0.1571,-0.363802 0.37621,-0.677995 0.657322,-0.942578 0.28112,-0.272852 0.62425,-0.483692 1.02939,-0.63252 0.40515,-0.148828 0.86403,-0.223242 1.37666,-0.223242 0.35554,0 0.6656,0.0248 0.93018,0.07441 0.26458,0.04961 0.48369,0.107487 0.65733,0.173633 0.1819,0.06615 0.32246,0.132291 0.42168,0.198437 0.0992,0.05788 0.16536,0.09922 0.19843,0.124024 0.0744,0.07441 0.15296,0.14056 0.23565,0.198437 0.0909,0.04961 0.14469,0.132292 0.16123,0.248047 l 0.38447,2.430859 h 1.45108 v -3.956347 l -0.22325,-0.07441 c -0.27285,-0.08268 -0.56224,-0.169499 -0.86816,-0.260449 -0.30593,-0.09922 -0.63665,-0.186036 -0.99219,-0.26045 -0.34726,-0.08268 -0.71933,-0.148828 -1.11621,-0.198437 -0.39687,-0.04961 -0.82269,-0.07441 -1.27744,-0.07441 z"
       id="path4857" />
    <path
       inkscape:connector-curvature="0"
       id="path4849"
       style="font-style:normal;font-weight:normal;font-size:10.58333302px;line-height:1.25;font-family:sans-serif;letter-spacing:0px;word-spacing:0px;fill:#01386e;fill-opacity:1;stroke:none;stroke-width:0.26458332"
       d="m 57.755712,16.242163 c -0.0011,9e-4 -0.0021,0.0022 -0.0031,0.0031 0.0045,0.0097 0.01019,0.02392 0.0088,0.01757 -0.0033,-0.01512 -0.0043,-0.01691 -0.0057,-0.02067 z m -0.03669,0.02377 c -0.0158,0.0096 -0.03146,0.0193 -0.04806,0.02532 0.0019,0.01311 0.0051,0.02316 0.01138,0.01654 0.01471,-0.01557 0.02529,-0.02831 0.03669,-0.04186 z m -0.862481,0.08423 c -0.01585,0.01014 -0.03166,0.01868 -0.04754,0.02894 0.0091,-2.6e-5 0.01826,-3e-6 0.02739,0 0.0067,3.9e-5 0.01344,-1.9e-5 0.02016,0 -2.33e-4,-0.0097 2.56e-4,-0.01929 0,-0.02894 z" />
    <path
       inkscape:connector-curvature="0"
       id="path4841"
       style="font-style:normal;font-weight:normal;font-size:10.58333302px;line-height:1.25;font-family:sans-serif;letter-spacing:0px;word-spacing:0px;fill:#ba7500;fill-opacity:1;stroke:none;stroke-width:0.26458332"
       d="m 56.201502,15.375036 v 0.03514 c 1.75e-4,0.0061 -0.0016,0.01209 -0.0026,0.01809 5.29e-4,0.0019 0.0026,0.0012 0.0026,0.0036 v 0.183452 0.09767 5.29e-4 0.01654 0.0279 0.001 0.01654 0.07337 0.02481 c 0,0.0014 2.09e-4,0.0027 0,0.0041 -1.56e-4,0.0013 -7.94e-4,0.0024 -0.0011,0.0036 0.0021,0.05433 0.0013,0.109017 0.0011,0.163297 6.9e-5,0.05721 3.7e-5,0.114357 0,0.171566 -3.2e-5,0.02063 -1.1e-5,0.04087 0,0.06149 v 0.0046 c -3e-6,10e-4 -3e-6,0.0021 0,0.0031 v 10e-4 0.04393 0.0077 c 0,0.0071 2.64e-4,0.01458 0,0.0217 v 0.01912 0.05168 c 0,0.0081 5.29e-4,0.01785 -0.0011,0.02584 -2.15e-4,0.0012 -7.94e-4,0.0024 -0.0011,0.0036 3.7e-5,0.0034 -8e-6,0.0069 0,0.01034 2.65e-4,0.0016 0.0021,0.001 0.0021,0.0031 v 0.06976 0.02067 c 0.0011,0.0013 0.0026,0.0015 0.0026,0.0041 v 0.001 0.0021 0.0083 0.03256 c 0,0.002 -0.0013,0.0019 -0.0021,0.0031 h 0.0026 v 14.051852 c 0,0.124024 -0.04547,0.243912 -0.136425,0.359667 -0.08268,0.115755 -0.214974,0.181901 -0.396875,0.198437 l -1.624708,0.09922 v 1.091406 h 6.883302 v -1.091406 l -1.624708,-0.09922 c -0.181901,-0.01654 -0.318326,-0.08268 -0.409276,-0.198437 -0.08268,-0.115755 -0.124024,-0.235643 -0.124024,-0.359667 V 16.615271 h 0.0066 v -0.03256 -0.555005 -0.652674 z m -0.02119,0.583427 c -0.0039,0.0057 -0.0082,0.01259 -0.01085,0.0052 3.7e-5,0.01298 -0.0034,0.02767 -0.0067,0.04341 0.0074,0.02168 0.01289,0.04531 0.0181,0.06976 -3.2e-5,-0.01085 0,-0.02173 0,-0.03256 1.59e-4,-0.02858 -1.88e-4,-0.05718 0,-0.08578 z m 4.450379,0.394808 v 0.115755 c 0.01685,0.0011 0.03291,9.79e-4 0.05012,0.0021 -0.01934,-0.03457 -0.03632,-0.07353 -0.05012,-0.117819 z" />
    <path
       style="font-style:normal;font-weight:normal;font-size:10.58333302px;line-height:1.25;font-family:sans-serif;letter-spacing:0px;word-spacing:0px;fill:#01386e;fill-opacity:1;stroke:none;stroke-width:0.26458332"
       d="m 36.203771,15.833432 -2.888714,0.870748 v 0.749826 h 1.719792 v 13.592967 c 0,0.102893 -0.05862,0.209634 -0.176217,0.319878 -0.110242,0.102893 -0.216983,0.153995 -0.319876,0.153995 l -1.201479,0.06615 v 0.882115 h 5.490105 v -0.882115 l -1.223698,-0.06615 c -0.102894,0 -0.209635,-0.0511 -0.319876,-0.153995 -0.102894,-0.110244 -0.153996,-0.216985 -0.153996,-0.319878 V 15.833432 Z"
       id="path4833"
       inkscape:connector-curvature="0" />
    <path
       inkscape:connector-curvature="0"
       style="font-style:normal;font-weight:normal;font-size:10.58333302px;line-height:1.25;font-family:sans-serif;letter-spacing:0px;word-spacing:0px;fill:#01386e;fill-opacity:1;stroke:none;stroke-width:0.26458332"
       d="m 65.94436,16.581382 c -0.19109,0 -0.374999,0.03658 -0.551389,0.11007 -0.16904,0.06615 -0.315857,0.161863 -0.440799,0.286805 -0.124944,0.124942 -0.224163,0.27176 -0.297656,0.4408 -0.0735,0.169039 -0.110588,0.348931 -0.110588,0.540018 0,0.191088 0.03709,0.374999 0.110588,0.551388 0.07349,0.169039 0.172712,0.315858 0.297656,0.4408 0.124942,0.124942 0.271759,0.224161 0.440799,0.297656 0.17639,0.07349 0.360299,0.110588 0.551389,0.110588 0.191087,0 0.367477,-0.03709 0.529166,-0.110588 0.16904,-0.07349 0.315857,-0.172714 0.440799,-0.297656 0.124941,-0.124942 0.22066,-0.271761 0.286806,-0.4408 0.07349,-0.176389 0.110069,-0.3603 0.110069,-0.551388 0,-0.191087 -0.03658,-0.370979 -0.110069,-0.540018 -0.06615,-0.16904 -0.161865,-0.315858 -0.286806,-0.4408 -0.124942,-0.124942 -0.271759,-0.220659 -0.440799,-0.286805 -0.161689,-0.07349 -0.338079,-0.11007 -0.529166,-0.11007 z"
       id="path4827" />
    <path
       inkscape:connector-curvature="0"
       style="font-style:normal;font-weight:normal;font-size:10.58333302px;line-height:1.25;font-family:sans-serif;letter-spacing:0px;word-spacing:0px;fill:#01386e;fill-opacity:1;stroke:none;stroke-width:0.26458332"
       d="m 26.802563,21.032052 c -0.837848,0 -1.591519,0.146818 -2.260328,0.440799 -0.661458,0.293982 -1.227201,0.701881 -1.697572,1.223698 -0.470371,0.514468 -0.83067,1.120806 -1.080553,1.81901 -0.249885,0.698206 -0.374655,1.44786 -0.374655,2.248958 0,0.8158 0.121269,1.572974 0.363802,2.271181 0.249886,0.690856 0.606166,1.289671 1.069187,1.796788 0.46302,0.507119 1.02526,0.907497 1.686718,1.201478 0.661459,0.286631 1.404107,0.429948 2.227255,0.429948 0.823148,0 1.565278,-0.146817 2.226736,-0.440801 0.668808,-0.293982 1.234551,-0.694357 1.697572,-1.201476 0.470371,-0.514469 0.83067,-1.117301 1.080553,-1.80816 0.257233,-0.698203 0.386024,-1.447858 0.386024,-2.248958 0,-0.79375 -0.121269,-1.53588 -0.363802,-2.226736 -0.235185,-0.698206 -0.580959,-1.304543 -1.036629,-1.819011 -0.455671,-0.521817 -1.013892,-0.933735 -1.67535,-1.235067 -0.661458,-0.301331 -1.411113,-0.451651 -2.248958,-0.451651 z"
       id="path4817" />
    <path
       inkscape:connector-curvature="0"
       style="font-style:normal;font-weight:normal;font-size:10.58333302px;line-height:1.25;font-family:sans-serif;letter-spacing:0px;word-spacing:0px;fill:#01386e;fill-opacity:1;stroke:none;stroke-width:0.26458332"
       d="m 42.687013,20.984805 -2.778125,0.881599 v 0.772046 h 1.576131 v 6.11849 c 0,0.639411 0.07016,1.190625 0.209806,1.653646 0.14699,0.455671 0.352433,0.834001 0.617017,1.13533 0.271933,0.293984 0.599159,0.510966 0.981334,0.650608 0.389525,0.146989 0.826995,0.220141 1.312066,0.220141 0.330729,0 0.668462,-0.05512 1.013891,-0.165365 0.352777,-0.102894 0.687525,-0.231166 1.003557,-0.385506 0.323379,-0.161689 0.621035,-0.334576 0.892969,-0.518316 0.279281,-0.183737 0.514294,-0.349102 0.705381,-0.496093 v 1.289843 h 3.582729 v -0.882115 l -0.992188,-0.06615 c -0.132292,-0.01471 -0.249539,-0.0658 -0.352433,-0.153996 -0.09554,-0.08819 -0.143661,-0.202456 -0.143661,-0.342098 V 20.984801 H 49.389446 L 46.63354,21.8664 v 0.772046 h 1.5875 v 7.562329 c -0.132291,0.06615 -0.294153,0.139814 -0.48524,0.220658 -0.18374,0.0735 -0.382178,0.147163 -0.595313,0.220659 -0.213137,0.06615 -0.437126,0.121267 -0.672311,0.165365 -0.235186,0.0441 -0.466696,0.06615 -0.694531,0.06615 -0.396875,0 -0.735127,-0.05512 -1.014408,-0.165365 -0.279283,-0.117594 -0.506775,-0.286977 -0.683162,-0.507463 -0.169039,-0.220485 -0.294328,-0.488571 -0.375171,-0.804603 -0.0735,-0.316029 -0.110072,-0.672309 -0.110072,-1.069184 v -7.342187 z"
       id="path4815" />
    <path
       inkscape:connector-curvature="0"
       style="font-style:normal;font-weight:normal;font-size:10.58333302px;line-height:1.25;font-family:sans-serif;letter-spacing:0px;word-spacing:0px;fill:#01386e;fill-opacity:1;stroke:none;stroke-width:0.26458332"
       d="m 66.133349,21.246744 -2.756421,0.859895 v 0.79375 h 1.554427 v 8.058423 c 0,0.139642 -0.0441,0.253905 -0.132292,0.342098 -0.0882,0.08819 -0.201941,0.139296 -0.341582,0.153996 l -1.102257,0.06615 v 0.882115 h 5.302517 v -0.882115 l -1.157552,-0.06615 c -0.132292,-0.01471 -0.246036,-0.0658 -0.34158,-0.153996 -0.0882,-0.08819 -0.132291,-0.202456 -0.132291,-0.342098 v -9.712068 z"
       id="path4813" />
    <path
       inkscape:connector-curvature="0"
       style="font-style:normal;font-weight:normal;font-size:10.58333302px;line-height:1.25;font-family:sans-serif;letter-spacing:0px;word-spacing:0px;fill:#01386e;fill-opacity:1;stroke:none;stroke-width:0.26458332"
       d="m 75.461312,20.984805 c -0.837846,0 -1.591004,0.146818 -2.259809,0.440799 -0.661459,0.293982 -1.227717,0.701881 -1.698088,1.223698 -0.470371,0.514468 -0.830154,1.120806 -1.080037,1.81901 -0.249886,0.698206 -0.375172,1.44786 -0.375172,2.248958 0,0.8158 0.121267,1.572974 0.363802,2.271181 0.249884,0.690856 0.606682,1.289671 1.069703,1.796788 0.463021,0.507119 1.02526,0.907497 1.686719,1.201478 0.661458,0.286631 1.403588,0.429948 2.226736,0.429948 0.823148,0 1.56528,-0.146817 2.226738,-0.440801 0.668809,-0.293982 1.235067,-0.694357 1.698088,-1.201476 0.470369,-0.514469 0.830152,-1.117301 1.080037,-1.80816 0.257234,-0.698203 0.386022,-1.447858 0.386022,-2.248958 0,-0.79375 -0.121266,-1.53588 -0.363802,-2.226736 -0.235185,-0.698206 -0.58044,-1.304543 -1.036111,-1.819011 -0.455673,-0.521817 -1.01441,-0.933735 -1.675868,-1.235067 -0.661458,-0.301331 -1.41111,-0.451651 -2.248958,-0.451651 z"
       id="path4811" />
    <path
       inkscape:connector-curvature="0"
       style="font-style:normal;font-weight:normal;font-size:10.58333302px;line-height:1.25;font-family:sans-serif;letter-spacing:0px;word-spacing:0px;fill:#01386e;fill-opacity:1;stroke:none;stroke-width:0.26458332"
       d="m 89.865529,21.268287 c -0.264584,0 -0.547714,0.04008 -0.849046,0.120922 -0.301331,0.0735 -0.613513,0.176734 -0.936892,0.309025 -0.323381,0.132292 -0.650608,0.282613 -0.981337,0.451652 -0.323379,0.16904 -0.643083,0.341926 -0.959114,0.518315 v -1.124479 h -0.926042 l -2.755903,0.859896 v 0.738456 h 1.576131 v 7.838281 c 0,0.139642 -0.0441,0.253905 -0.132291,0.342098 -0.0882,0.08819 -0.201941,0.139296 -0.341583,0.153996 l -1.102257,0.06615 v 0.882115 h 5.10408 v -0.882115 l -0.948261,-0.06615 c -0.139642,-0.01471 -0.253386,-0.0658 -0.341583,-0.153996 -0.08819,-0.08819 -0.132291,-0.202456 -0.132291,-0.342098 v -7.408333 c 0.382177,-0.191088 0.782553,-0.345429 1.201478,-0.463021 0.418923,-0.124942 0.845367,-0.187069 1.27899,-0.187069 0.7864,0 1.345139,0.187413 1.675869,0.56224 0.330729,0.367477 0.496093,0.907667 0.496093,1.620573 v 5.87561 c 0,0.139642 -0.04812,0.253905 -0.14366,0.342098 -0.0882,0.08819 -0.198438,0.139296 -0.33073,0.153996 l -0.947745,0.06615 v 0.882115 h 4.982641 v -0.882115 l -0.992187,-0.06615 c -0.132292,-0.01471 -0.246039,-0.0658 -0.341583,-0.153996 -0.08819,-0.08819 -0.132291,-0.202456 -0.132291,-0.342098 v -6.228561 c 0,-1.102429 -0.257062,-1.958823 -0.771528,-2.568835 -0.514469,-0.610011 -1.264121,-0.914672 -2.248958,-0.914672 z"
       id="path4809" />
    <path
       inkscape:connector-curvature="0"
       style="font-style:normal;font-weight:normal;font-size:10.58333302px;line-height:1.25;font-family:sans-serif;letter-spacing:0px;word-spacing:0px;fill:#ffffff;fill-opacity:1;stroke:none;stroke-width:0.26458332"
       d="m 26.78034,22.045943 c 0.507119,0 0.948092,0.128789 1.322917,0.386023 0.374827,0.257234 0.687009,0.60249 0.936895,1.036112 0.249883,0.433623 0.433795,0.933736 0.551386,1.499651 0.124942,0.565915 0.187587,1.157208 0.187587,1.774568 0,0.61736 -0.06264,1.209173 -0.187587,1.775085 -0.117591,0.565914 -0.301503,1.065511 -0.551386,1.499134 -0.242536,0.433623 -0.554718,0.779396 -0.936895,1.03663 -0.382175,0.257233 -0.83067,0.385505 -1.345136,0.385505 -0.507119,0 -0.948092,-0.128272 -1.322917,-0.385505 -0.374827,-0.264584 -0.687009,-0.61386 -0.936895,-1.047483 -0.249883,-0.433621 -0.437298,-0.933217 -0.562239,-1.499132 -0.117592,-0.565915 -0.176216,-1.154221 -0.176216,-1.764234 0,-0.61736 0.05862,-1.208653 0.176216,-1.774568 0.117594,-0.565915 0.297484,-1.066028 0.540019,-1.499651 0.249884,-0.433622 0.566087,-0.778878 0.948262,-1.036112 0.382177,-0.257234 0.834173,-0.386023 1.355989,-0.386023 z"
       id="path4807" />
    <path
       inkscape:connector-curvature="0"
       style="font-style:normal;font-weight:normal;font-size:10.58333302px;line-height:1.25;font-family:sans-serif;letter-spacing:0px;word-spacing:0px;fill:#ffffff;fill-opacity:1;stroke:none;stroke-width:0.26458332"
       d="m 75.486339,21.856955 c 0.507116,0 0.948089,0.128789 1.322916,0.386023 0.374825,0.257234 0.687526,0.60249 0.937411,1.036112 0.249883,0.433623 0.433277,0.933736 0.550871,1.499651 0.124941,0.565915 0.187584,1.157208 0.187584,1.774568 0,0.61736 -0.06264,1.209173 -0.187584,1.775085 -0.117594,0.565914 -0.300988,1.065511 -0.550871,1.499134 -0.242535,0.433623 -0.555236,0.779396 -0.937411,1.03663 -0.382177,0.257233 -0.830154,0.385505 -1.34462,0.385505 -0.507119,0 -0.948092,-0.128272 -1.322917,-0.385505 -0.374827,-0.264584 -0.687527,-0.61386 -0.93741,-1.047483 -0.249886,-0.433621 -0.437298,-0.933217 -0.56224,-1.499132 -0.117594,-0.565915 -0.176218,-1.154221 -0.176218,-1.764234 0,-0.61736 0.05862,-1.208653 0.176218,-1.774568 0.117591,-0.565915 0.298,-1.066028 0.540536,-1.499651 0.249883,-0.433622 0.565568,-0.778878 0.947745,-1.036112 0.382175,-0.257234 0.834173,-0.386023 1.35599,-0.386023 z"
       id="text6335-2" />
    <path
       inkscape:connector-curvature="0"
       id="rect4755"
       style="fill:#ba7500;fill-opacity:1;stroke-width:0.45415267"
       d="m 56.208519,12.090479 v 8.009255 h 2.569869 v -8.009255 z" />
    <path
       inkscape:connector-curvature="0"
       style="font-style:normal;font-weight:normal;font-size:10.58333302px;line-height:1.25;font-family:sans-serif;letter-spacing:0px;word-spacing:0px;fill:#ba7500;fill-opacity:1;stroke:none;stroke-width:0.26458332"
       d="m 14.263586,14.557291 c -0.8351,0 -1.61231,0.119889 -2.33164,0.359668 -0.71107,0.23151 -1.33119,0.566373 -1.86036,1.00459 -0.5208903,0.429948 -0.9301709,0.950846 -1.2278299,1.562696 -0.29765,0.611849 -0.44648,1.293977 -0.44648,2.046387 0,0.644921 0.10335,1.203027 0.31006,1.674315 0.21497,0.463022 0.5002295,0.868164 0.8557596,1.215431 0.3638,0.347264 0.7813503,0.653187 1.2526303,0.917773 0.47956,0.264583 0.97979,0.520899 1.50069,0.768946 0.46302,0.223242 0.95498,0.454751 1.47588,0.69453 0.5209,0.239779 1.00045,0.51263 1.43867,0.818555 0.44648,0.297656 0.81442,0.640786 1.10381,1.029393 0.29766,0.380338 0.44648,0.826823 0.44648,1.339453 0,0.471289 -0.0951,0.892969 -0.28525,1.265039 -0.1819,0.37207 -0.43822,0.686263 -0.76895,0.942578 -0.33072,0.256315 -0.7276,0.454753 -1.19062,0.595313 -0.45475,0.132291 -0.95085,0.198437 -1.48828,0.198437 -0.39688,0 -0.75241,-0.02894 -1.06661,-0.08682 -0.30592,-0.05788 -0.56637,-0.119891 -0.78134,-0.186036 -0.21498,-0.07442 -0.38448,-0.14056 -0.5085,-0.198438 l -0.21084,-0.11162 c -0.0909,-0.04134 -0.1819,-0.11989 -0.27285,-0.235646 -0.0827,-0.115755 -0.13229,-0.223242 -0.14883,-0.322461 L 9.7243257,26.972036 H 8.1244261 v 4.502052 c 0.3638,0.173633 0.77308,0.330729 1.2278295,0.471289 0.3968701,0.115755 0.8681604,0.223242 1.4138704,0.322461 0.55397,0.09922 1.17822,0.148828 1.87275,0.148828 1.19063,0 2.21175,-0.148828 3.06338,-0.446484 0.85163,-0.297657 1.55029,-0.690399 2.096,-1.178224 0.5457,-0.487826 0.94258,-1.041797 1.19062,-1.661914 0.25632,-0.620118 0.38447,-1.252636 0.38447,-1.897558 0,-0.636653 -0.10748,-1.19476 -0.32246,-1.674317 -0.21497,-0.487826 -0.52916,-0.926042 -0.94258,-1.314648 -0.40514,-0.388607 -0.9095,-0.740005 -1.51308,-1.054199 -0.59531,-0.314195 -1.27744,-0.615982 -2.04639,-0.90537 -0.57051,-0.214974 -1.07487,-0.438217 -1.51308,-0.669727 -0.43822,-0.23151 -0.81029,-0.479558 -1.11622,-0.744141 -0.29765,-0.272851 -0.52503,-0.566374 -0.68213,-0.880567 -0.14882,-0.32246 -0.22324,-0.677994 -0.22324,-1.066601 0,-0.429947 0.0744,-0.826822 0.22324,-1.190625 0.1571,-0.363802 0.37621,-0.677995 0.65733,-0.942578 0.28112,-0.272852 0.62425,-0.483692 1.02939,-0.63252 0.40515,-0.148828 0.86403,-0.223242 1.37666,-0.223242 0.35554,0 0.6656,0.0248 0.93018,0.07441 0.26458,0.04961 0.48369,0.107487 0.65733,0.173633 0.1819,0.06615 0.32246,0.132291 0.42168,0.198437 0.0992,0.05788 0.16536,0.09922 0.19843,0.124024 0.0744,0.07441 0.15296,0.14056 0.23565,0.198437 0.0909,0.04961 0.14469,0.132292 0.16123,0.248047 l 0.38447,2.430859 h 1.45108 v -3.956347 l -0.22325,-0.07441 c -0.27285,-0.08268 -0.56224,-0.169499 -0.86816,-0.260449 -0.30593,-0.09922 -0.63665,-0.186036 -0.99219,-0.26045 -0.34726,-0.08268 -0.71933,-0.148828 -1.11621,-0.198437 -0.39687,-0.04961 -0.82269,-0.07441 -1.27744,-0.07441 z"
       id="path4857-5" />
    <rect
       style="fill:#ba7500;fill-opacity:1;stroke-width:0.43849564"
       id="rect6369-7-4-3"
       width="97.462357"
       height="2.3996265"
       x="6.8121428"
       y="9.6792164"
       ry="1.1371458e-13"
       transform="matrix(0.99999989,4.7007841e-4,0.02238459,0.99974943,0,0)" />
    <rect
       style="fill:#ba7500;fill-opacity:1;stroke-width:0.15797812"
       id="rect6369-7-4-3-8"
       width="12.653397"
       height="2.3990362"
       x="46.040085"
       y="9.7432737"
       ry="1.1368661e-13"
       transform="matrix(0.99999989,-4.6745061e-4,0.0070964,0.99997482,0,0)" />
    <rect
       style="fill:#ba7500;fill-opacity:1;stroke-width:0.15797812"
       id="rect6369-7-4-3-8-6"
       width="12.653397"
       height="2.3990362"
       x="56.12236"
       y="9.7430391"
       ry="1.1368661e-13"
       transform="matrix(0.99999989,-4.6744996e-4,0.0070964,0.99997482,0,0)" />
    <rect
       style="fill:#ba7500;fill-opacity:1;stroke-width:0.15797812"
       id="rect6369-7-4-3-8-6-6"
       width="12.653397"
       height="2.3990362"
       x="95.577591"
       y="9.7512779"
       ry="1.1368661e-13"
       transform="matrix(0.99999989,-4.6744996e-4,0.0070964,0.99997482,0,0)" />
  </g>
</svg>
